<?xml version="1.0" standalone="no"?>
<svg version="1.0" xmlns="http://www.w3.org/2000/svg"
 width="265.000000pt" height="265.000000pt" viewBox="0 0 265.000000 265.000000"
 preserveAspectRatio="xMidYMid meet">

<g transform="translate(0.000000,265.000000) scale(0.100000,-0.100000)"
fill="#000000" stroke="none">
<path d="M1440 2354 c-42 -18 -171 -44 -221 -44 -45 0 -63 -19 -65 -73 -1 -30
1 -36 6 -22 6 14 9 15 10 5 1 -10 4 -9 9 5 6 14 3 24 -8 33 -12 9 -7 9 19 -1
55 -23 136 -66 125 -68 -5 -1 -19 -3 -30 -4 -11 -2 -33 -5 -50 -9 -28 -6 -27
-5 5 8 35 15 35 15 -25 9 -33 -3 -89 -11 -125 -19 l-65 -13 81 5 c46 3 98 1
121 -5 37 -10 46 -9 89 14 54 29 96 32 115 8 13 -15 12 -15 -7 -3 -16 10 -31
11 -55 4 l-34 -10 33 -17 c29 -16 35 -16 62 -2 38 19 39 13 3 -11 -29 -18
-173 -37 -173 -22 0 8 64 13 105 9 15 -1 17 1 8 10 -12 12 -25 13 -138 6 -60
-4 -96 -16 -247 -81 -98 -42 -185 -76 -195 -76 -30 0 -61 -28 -73 -65 -10 -29
-16 -35 -40 -35 -47 0 -67 -28 -104 -143 -22 -68 -58 -146 -97 -212 -53 -91
-60 -110 -55 -140 4 -18 15 -44 25 -57 19 -22 19 -23 -5 -51 -30 -35 -30 -66
-2 -102 12 -15 37 -55 56 -89 18 -34 31 -52 27 -41 -46 143 -53 338 -16 469
39 140 92 228 206 341 115 114 198 167 343 215 100 34 192 49 192 33 0 -6 18
-18 40 -28 35 -16 49 -17 100 -7 91 17 161 -11 183 -71 l12 -32 5 35 c4 24 1
41 -9 54 -15 18 -15 19 9 3 32 -20 96 -35 193 -45 62 -7 77 -6 77 5 0 26 -39
90 -74 121 -49 43 -94 50 -162 23 -31 -11 -70 -20 -87 -20 -26 1 -23 3 14 9
25 4 60 15 77 24 72 37 150 5 218 -90 48 -67 57 -72 138 -76 l50 -3 -3 -58
c-3 -67 10 -89 67 -113 66 -27 130 -83 156 -136 32 -64 34 -128 5 -206 -37
-100 -37 -104 17 -151 27 -23 43 -45 38 -49 -5 -5 -28 -23 -51 -41 -24 -18
-43 -41 -43 -51 0 -9 11 -43 25 -74 49 -111 43 -214 -17 -282 -19 -21 -64 -52
-108 -73 l-75 -36 0 -50 c0 -27 3 -65 7 -83 l8 -34 -60 7 c-87 10 -115 -4
-136 -69 -39 -119 -79 -165 -166 -191 -69 -20 -113 -19 -193 6 -84 26 -123 20
-176 -28 l-39 -35 -44 40 c-57 52 -77 57 -180 42 -71 -10 -93 -9 -147 4 -101
26 -164 76 -210 169 -34 67 -47 77 -98 77 l-47 0 4 39 c6 56 -22 105 -87 155
-122 94 -171 222 -137 356 21 82 20 100 -8 134 l-23 30 31 49 c29 47 31 55 31
157 1 101 3 113 35 177 24 50 54 89 115 148 58 56 85 90 90 113 6 30 9 32 51
32 36 0 51 6 84 36 22 20 68 52 102 71 35 19 54 32 43 29 -11 -3 -26 -1 -34 4
-12 7 -13 13 -2 37 12 26 11 27 -5 11 -9 -9 -26 -33 -38 -54 -21 -38 -152
-128 -170 -117 -14 9 2 75 25 99 26 28 19 31 -17 8 -31 -21 -51 -58 -65 -125
-9 -43 -23 -64 -81 -127 -116 -125 -146 -187 -176 -370 -9 -56 -21 -104 -26
-105 -12 -3 -46 92 -46 129 0 16 5 35 12 42 8 8 9 12 1 12 -6 0 -21 -12 -33
-27 -33 -42 -25 -128 22 -224 28 -59 37 -91 42 -157 14 -178 53 -291 151 -443
58 -90 114 -149 231 -246 52 -42 94 -81 94 -85 0 -9 -22 -12 -58 -9 -32 3 -86
39 -106 71 l-15 25 -1 -30 c0 -32 31 -92 59 -111 33 -25 100 -36 209 -36 82 1
139 -5 210 -21 139 -31 379 -31 505 1 158 40 313 117 420 212 26 22 41 30 48
23 16 -16 -10 -91 -44 -124 -54 -54 29 -31 91 26 51 46 78 110 92 220 10 75
20 106 60 185 73 145 94 227 116 469 l6 74 19 -24 c22 -29 39 -93 39 -151 l1
-43 22 40 c18 33 22 55 21 135 -1 114 -19 166 -112 313 -60 96 -60 97 -34 97
32 0 98 -45 117 -79 27 -49 17 11 -11 67 -31 62 -66 94 -174 158 -77 46 -140
102 -140 124 0 18 46 10 94 -15 25 -13 46 -22 46 -20 0 3 -17 23 -37 46 -24
27 -73 59 -142 94 -59 29 -115 60 -126 69 l-20 15 20 0 c11 0 38 -6 60 -14
l40 -14 -28 24 c-15 14 -67 37 -115 52 l-87 28 45 5 45 5 -47 13 c-26 6 -66
13 -90 13 l-43 2 40 6 40 7 -45 13 c-26 8 -65 11 -93 7 -37 -4 -55 -1 -80 14
-39 24 -107 26 -157 4z m146 -66 l58 -22 -34 -7 c-19 -4 -43 -3 -53 3 -21 11
-47 4 -47 -13 0 -7 11 -9 30 -5 35 7 39 1 9 -14 -24 -13 -119 5 -119 22 0 6 8
7 18 3 41 -17 55 -18 50 -4 -3 8 -16 13 -29 12 -22 -3 -22 -2 -5 8 11 7 41 9
75 6 57 -6 53 5 -6 18 -22 4 -46 0 -78 -14 -55 -24 -59 -19 -7 8 48 26 68 26
138 -1z m-356 8 c0 -2 -9 -6 -20 -9 -11 -3 -18 -1 -14 4 5 9 34 13 34 5z m444
-71 c-10 -8 -23 -14 -29 -14 -5 0 -1 6 9 14 11 8 24 15 30 15 5 0 1 -7 -10
-15z m-89 -30 c-27 -8 -57 -14 -65 -14 -24 1 63 27 90 27 14 0 3 -6 -25 -13z
m-24 -86 c13 -26 7 -24 -22 7 -17 19 -19 23 -6 18 10 -3 22 -15 28 -25z"/>
<path d="M1008 2147 c10 -4 0 -5 -23 -2 -28 3 -35 2 -25 -5 13 -9 13 -10 0
-10 -22 0 -135 -56 -174 -85 -96 -73 -15 -60 199 32 82 36 155 68 162 71 6 4
-26 7 -72 7 -48 0 -77 -3 -67 -8z"/>
<path d="M1700 1973 c113 -74 173 -134 245 -244 171 -256 169 -577 -4 -851
-52 -83 -178 -203 -267 -256 -119 -71 -208 -95 -365 -100 -115 -4 -149 -1
-220 17 -226 56 -413 208 -525 426 -20 38 -33 61 -29 50 4 -11 15 -65 26 -120
11 -55 26 -110 34 -122 13 -19 68 -43 102 -43 6 0 11 -15 10 -36 -1 -49 24
-68 120 -89 91 -20 156 -51 233 -110 102 -78 126 -82 192 -32 l43 33 28 -33
c42 -48 69 -44 151 23 90 72 130 92 218 105 128 20 148 27 159 57 6 14 7 43 4
63 l-6 37 55 6 c88 11 97 24 101 136 4 115 20 158 98 255 31 39 57 75 57 82 0
7 -16 28 -36 48 l-36 36 43 37 c39 35 41 39 29 62 -7 14 -32 46 -56 73 -61 68
-82 120 -97 235 -16 122 -29 142 -94 142 l-43 0 0 54 c0 58 -14 83 -53 90 -12
2 -56 9 -97 15 -41 6 -86 14 -100 17 -14 4 22 -24 80 -63z"/>
<path d="M1880 1981 c4 -16 6 -48 3 -69 l-5 -40 65 -4 65 -3 6 50 c12 98 15
92 -68 94 l-75 1 9 -29z"/>
<path d="M622 1938 c-5 -24 -8 -43 -8 -44 1 0 20 1 43 4 31 3 44 9 48 23 3 10
8 28 11 39 5 18 1 20 -40 20 -45 0 -45 0 -54 -42z"/>
<path d="M554 1852 c-78 -57 -140 -143 -158 -217 -9 -37 -9 -172 0 -187 7 -11
77 91 119 172 25 50 90 249 83 256 -3 2 -22 -9 -44 -24z"/>
<path d="M2014 1826 c-10 -43 14 -197 40 -251 28 -55 133 -168 149 -158 19 12
59 120 64 175 9 98 -48 181 -161 234 -65 30 -84 30 -92 0z"/>
<path d="M358 1363 l-35 -49 31 -36 32 -36 33 39 c30 36 32 42 18 57 -8 9 -21
30 -29 46 l-15 28 -35 -49z"/>
<path d="M2174 1369 c-10 -12 -31 -29 -46 -39 l-27 -16 44 -44 44 -43 61 41
61 41 -54 40 c-30 23 -56 41 -59 41 -3 0 -13 -10 -24 -21z"/>
<path d="M369 1193 c-50 -132 -23 -258 73 -349 46 -44 116 -89 124 -81 10 9
-28 214 -50 268 -23 57 -112 189 -128 189 -5 0 -13 -12 -19 -27z"/>
<path d="M2126 1150 c-86 -90 -106 -141 -106 -274 l0 -108 38 7 c54 10 123 42
154 72 39 38 62 112 54 177 -7 52 -54 168 -74 180 -5 3 -35 -21 -66 -54z"/>
<path d="M1924 748 l-62 -9 6 -67 c2 -37 5 -68 6 -68 0 -1 39 -4 86 -6 l86 -6
-15 84 c-12 63 -19 84 -31 83 -8 -1 -43 -6 -76 -11z"/>
<path d="M580 679 l0 -72 51 6 c29 4 53 8 54 9 1 2 5 24 7 50 l5 47 -41 7
c-22 3 -49 10 -58 16 -16 8 -18 2 -18 -63z"/>
<path d="M700 593 c0 -37 52 -123 100 -166 29 -27 67 -49 94 -57 58 -16 201
-9 240 12 l28 15 -68 57 c-118 99 -192 131 -346 151 -42 5 -48 4 -48 -12z"/>
<path d="M1750 590 c-137 -16 -208 -51 -304 -149 l-50 -50 60 -28 c52 -25 71
-28 159 -28 88 0 105 3 138 24 43 27 79 89 96 169 17 82 26 76 -99 62z"/>
<path d="M1249 446 c-19 -18 -44 -38 -55 -44 -18 -10 -15 -15 36 -66 30 -31
57 -56 60 -56 3 1 25 26 49 56 l44 55 -44 45 c-24 24 -46 44 -49 44 -3 0 -21
-16 -41 -34z"/>
</g>
</svg>
